<svg width="20" height="18" viewBox="0 0 20 18" fill="none" xmlns="http://www.w3.org/2000/svg">
<path d="M17.0761 2.53638C16.6504 2.11055 16.1451 1.77275 15.5889 1.54228C15.0327 1.31181 14.4365 1.19319 13.8344 1.19319C13.2323 1.19319 12.6362 1.31181 12.0799 1.54228C11.5237 1.77275 11.0184 2.11055 10.5927 2.53638L9.70941 3.41971L8.82608 2.53638C7.96633 1.67664 6.80027 1.19364 5.58441 1.19364C4.36855 1.19364 3.20249 1.67664 2.34274 2.53638C1.483 3.39612 1 4.56219 1 5.77805C1 6.99391 1.483 8.15997 2.34274 9.01971L3.22608 9.90305L9.70941 16.3864L16.1927 9.90305L17.0761 9.01971C17.5019 8.59408 17.8397 8.08872 18.0702 7.53251C18.3006 6.97629 18.4193 6.38012 18.4193 5.77805C18.4193 5.17597 18.3006 4.5798 18.0702 4.02358C17.8397 3.46737 17.5019 2.96201 17.0761 2.53638Z" fill="#180E19" stroke="#180E19" stroke-width="1.5" stroke-linecap="round" stroke-linejoin="round"/>
</svg>
